#!OML:ASF I:\Actors\actors\Patient Classification 2\Patient 1\Session 1\actor1.ASF
:FULLY-SPECIFIED
:DEGREES
1129
root -0.893877 18.6167 5.91195 -3.97734 -1.89534 -2.11154
lowerback 4.365 2.34204 6.74263
upperback 1.99465 3.40159 3.22825
thorax -0.189846 1.72504 -0.588386
lowerneck -6.12263 -4.2288 1.12223
upperneck 21.2406 -5.37351 -3.06812
head 7.39331 -2.74293 -1.61788
rclavicle 4.03284e-014 1.82882e-014
rhumerus 14.7985 17.2085 -74.634
rradius 68.8974
rwrist -42.4353
rhand -2.27357 -64.626
rfingers 7.12502
rthumb 23.411 -266.778
lclavicle 4.03284e-014 1.82882e-014
lhumerus -44.1074 -3.49318 92.7732
lradius 53.5947
lwrist 10.2598
lhand -7.493 -21.2856
lfingers 7.12502
lthumb 18.3966 7.86446
rfemur 13.7327 4.68797 18.0657
rtibia -2.70347e-014
rfoot -19.5685 -12.7956
rtoes -5.40538
lfemur 0.00692339 -5.97011 -12.7876
ltibia 22.9859
lfoot -21.5033 11.9048
ltoes -57.9067
1130
root -0.89456 18.6172 5.91595 -3.98826 -1.8866 -2.10489
lowerback 4.39925 2.34341 6.6967
upperback 1.97201 3.40658 3.2421
thorax -0.235794 1.72564 -0.55148
lowerneck -6.0803 -4.23517 1.08271
upperneck 21.2033 -5.37802 -3.06116
head 7.37489 -2.74763 -1.6074
rclavicle 1.45858e-014 -1.59028e-014
rhumerus 13.9472 16.9521 -75.1143
rradius 69.8329
rwrist -42.0521
rhand -2.24962 -64.6563
rfingers 7.12502
rthumb 23.434 -266.751
lclavicle 1.45858e-014 -1.59028e-014
lhumerus -44.18 -3.49309 92.8464
lradius 53.6964
lwrist 10.2797
lhand -7.53335 -21.1979
lfingers 7.12502
lthumb 18.3578 7.9558
rfemur 13.7624 4.68032 18.0579
rtibia -2.54444e-014
rfoot -19.5697 -12.7977
rtoes -5.59502
lfemur 0.0290948 -5.94277 -12.7954
ltibia 22.9888
lfoot -21.5066 11.8996
ltoes -57.929
1131
root -0.896314 18.6176 5.9196 -3.96481 -1.87809 -2.07783
lowerback 4.37226 2.37277 6.65734
upperback 1.96333 3.44196 3.21582
thorax -0.22846 1.74326 -0.557039
lowerneck -6.08212 -4.24985 0.963277
upperneck 21.1796 -5.41966 -2.87318
head 7.37643 -2.76004 -1.52969
rclavicle -1.35422e-014 4.77083e-015
rhumerus 13.1608 16.9506 -75.1486
rradius 70.9079
rwrist -42.0538
rhand -2.57372 -64.1514
rfingers 7.12502
rthumb 23.123 -267.216
lclavicle -1.35422e-014 4.77083e-015
lhumerus -44.1619 -3.54388 92.8886
lradius 53.7466
lwrist 10.2802
lhand -7.5753 -21.073
lfingers 7.12502
lthumb 18.3174 8.08453
rfemur 13.7514 4.67296 18.0278
rtibia 4.13472e-014
rfoot -19.5574 -12.7916
rtoes -5.7335
lfemur 0.012969 -5.93963 -12.8211
ltibia 22.9884
lfoot -21.5303 11.8711
ltoes -57.8185
1132
root -0.899464 18.6186 5.92359 -3.88769 -1.81418 -2.05787
lowerback 4.30453 2.39503 6.58759
upperback 1.92007 3.46516 3.1677
thorax -0.235373 1.75384 -0.566944
lowerneck -6.07392 -4.27894 0.867402
upperneck 21.1623 -5.50178 -2.6
head 7.37968 -2.78239 -1.43139
rclavicle -4.008e-014 -2.3059e-014
rhumerus 12.084 16.8624 -75.3318
rradius 72.3094
rwrist -41.7264
rhand -2.76896 -63.5037
rfingers 7.12502
rthumb 22.9357 -267.841
lclavicle -4.008e-014 -2.3059e-014
lhumerus -44.1162 -3.55156 92.8674
lradius 53.7379
lwrist 10.2245
lhand -7.63474 -21.0135
lfingers 7.12502
lthumb 18.2603 8.14941
rfemur 13.691 4.60763 17.9987
rtibia 1.74931e-014
rfoot -19.5373 -12.7807
rtoes -5.75889
lfemur -0.0751127 -5.93672 -12.8224
ltibia 22.9918
lfoot -21.5308 11.8313
ltoes -57.7604
1133
root -0.903678 18.62 5.92897 -3.80128 -1.66535 -2.05844
lowerback 4.22698 2.39947 6.4764
upperback 1.84884 3.46435 3.13664
thorax -0.270745 1.75104 -0.536108
lowerneck -6.0064 -4.33441 0.858087
upperneck 21.1222 -5.60212 -2.47345
head 7.35719 -2.81998 -1.39393
rclavicle 2.88983e-014 8.74653e-015
rhumerus 10.8471 16.8541 -75.4478
rradius 73.8233
rwrist -41.1017
rhand -2.99049 -62.3586
rfingers 7.12502
rthumb 22.7231 -268.959
lclavicle 2.88983e-014 8.74653e-015
lhumerus -44.0849 -3.51922 92.8534
lradius 53.7339
lwrist 10.1961
lhand -7.70266 -21.1168
lfingers 7.12502
lthumb 18.1949 8.0522
rfemur 13.6341 4.4554 17.9867
rtibia -2.06736e-014
rfoot -19.5502 -12.7264
rtoes -5.52685
lfemur -0.200429 -5.98011 -12.7961
ltibia 23.0072
lfoot -21.4791 11.8009
ltoes -57.7933
1134
root -0.907505 18.6209 5.93546 -3.74 -1.48785 -2.09687
lowerback 4.16025 2.40072 6.39194
upperback 1.78767 3.46083 3.11731
thorax -0.300937 1.74734 -0.508029
lowerneck -5.95417 -4.39439 0.867248
upperneck 21.0806 -5.69595 -2.42186
head 7.33401 -2.85975 -1.38356
rclavicle 2.90723e-015 3.73715e-014
rhumerus 9.4388 16.9397 -75.4534
rradius 75.4642
rwrist -40.1566
rhand -3.37207 -60.6808
rfingers 7.12502
rthumb 22.3568 -89.4072
lclavicle 2.90723e-015 3.73715e-014
lhumerus -44.0378 -3.53956 92.8618
lradius 53.7594
lwrist 10.2807
lhand -7.72957 -21.1897
lfingers 7.12502
lthumb 18.169 7.98177
rfemur 13.6161 4.27213 18.0176
rtibia 0
rfoot -19.5715 -12.6639
rtoes -5.45048
lfemur -0.305185 -6.03539 -12.7299
ltibia 23.0358
lfoot -21.4202 11.7191
ltoes -57.8282
1135
root -0.909924 18.6216 5.94343 -3.69362 -1.32455 -2.13847
lowerback 4.10805 2.40726 6.31937
upperback 1.7337 3.46558 3.08757
thorax -0.329924 1.74804 -0.497911
lowerneck -5.91642 -4.4499 0.802696
upperneck 21.0032 -5.79528 -2.26212
head 7.30788 -2.89857 -1.3263
rclavicle -1.37534e-014 -1.35174e-014
rhumerus 7.53744 16.9704 -75.6495
rradius 77.5558
rwrist -38.8541
rhand -3.68319 -59.4173
rfingers 7.12502
rthumb 22.0582 -88.1793
lclavicle -1.37534e-014 -1.35174e-014
lhumerus -43.9779 -3.5408 92.8514
lradius 53.7742
lwrist 10.3878
lhand -7.72624 -21.1059
lfingers 7.12502
lthumb 18.1722 8.06527
rfemur 13.6213 4.10458 18.0475
rtibia -2.54444e-014
rfoot -19.592 -12.6188
rtoes -5.64045
lfemur -0.38304 -6.0761 -12.6677
ltibia 23.0747
lfoot -21.4118 11.6172
ltoes -57.8453
1136
root -0.911408 18.6219 5.95185 -3.66864 -1.1455 -2.14539
lowerback 4.07049 2.41666 6.21155
upperback 1.68909 3.47362 3.05675
thorax -0.359353 1.75044 -0.470047
lowerneck -5.90943 -4.50433 0.594945
upperneck 20.932 -5.89716 -1.98533
head 7.29826 -2.93918 -1.20922
rclavicle -3.03395e-014 1.11319e-014
rhumerus 5.26933 16.918 -75.9865
rradius 79.8757
rwrist -37.7237
rhand -3.56918 -58.6993
rfingers 7.12502
rthumb 22.1676 -87.4483
lclavicle -3.03395e-014 1.11319e-014
lhumerus -43.9775 -3.47045 92.8654
lradius 53.8369
lwrist 10.4402
lhand -7.81064 -21.0422
lfingers 7.12502
lthumb 18.091 8.13648
rfemur 13.6473 3.92646 18.0315
rtibia 1.43125e-014
rfoot -19.6389 -12.556
rtoes -5.62392
lfemur -0.448337 -6.16704 -12.6565
ltibia 23.1204
lfoot -21.4361 11.5621
ltoes -57.8716
1137
root -0.914386 18.6205 5.95933 -3.69107 -0.969896 -2.17291
lowerback 4.0933 2.41561 6.08468
upperback 1.66081 3.47164 3.05556
thorax -0.409178 1.74751 -0.403426
lowerneck -5.93396 -4.51002 0.425246
upperneck 20.8993 -5.91154 -1.83499
head 7.3026 -2.94582 -1.13419
rclavicle -3.19546e-014 -6.36111e-015
rhumerus 2.9156 16.8526 -76.3835
rradius 82.0603
rwrist -37.106
rhand -2.99791 -58.1565
rfingers 7.12502
rthumb 22.716 -86.8393
lclavicle -3.19546e-014 -6.36111e-015
lhumerus -44.0854 -3.33258 92.9026
lradius 54.0309
lwrist 10.4512
lhand -7.95153 -21.0488
lfingers 7.12502
lthumb 17.9555 8.14234
rfemur 13.7215 3.75104 18.0454
rtibia 1.90833e-014
rfoot -19.6967 -12.4641
rtoes -5.2389
lfemur -0.466669 -6.2787 -12.6233
ltibia 23.165
lfoot -21.4631 11.5138
ltoes -57.9037
1138
root -0.917631 18.6187 5.96737 -3.72137 -0.803248 -2.2261
lowerback 4.12983 2.38254 5.98543
upperback 1.64186 3.42866 3.06653
thorax -0.458085 1.7244 -0.338419
lowerneck -5.97068 -4.46428 0.387834
upperneck 20.8997 -5.82936 -1.90244
head 7.30918 -2.9152 -1.14447
rclavicle 1.78658e-014 -1.11319e-014
rhumerus 0.605569 16.8696 -76.9168
rradius 83.9136
rwrist -36.6752
rhand -2.55121 -58.1342
rfingers 7.12502
rthumb 23.1446 -86.7639
lclavicle 1.78658e-014 -1.11319e-014
lhumerus -44.2262 -3.20293 92.9239
lradius 54.2674
lwrist 10.5556
lhand -8.07705 -21.0531
lfingers 7.12502
lthumb 17.8347 8.14905
rfemur 13.81 3.58196 18.0921
rtibia -2.54444e-014
rfoot -19.7085 -12.3816
rtoes -4.98313
lfemur -0.464526 -6.40342 -12.5658
ltibia 23.1995
lfoot -21.471 11.4721
ltoes -57.9647
